<svg width="19" height="19" viewBox="0 0 19 19" fill="none" xmlns="http://www.w3.org/2000/svg">
<path d="M16.92 0.844482C17.19 0.844482 17.42 0.944482 17.61 1.12448C17.8 1.32448 17.89 1.54448 17.89 1.82448V17.2645C17.89 17.5345 17.79 17.7645 17.61 17.9545C17.519 18.0469 17.4098 18.1195 17.2893 18.1677C17.1688 18.2159 17.0397 18.2386 16.91 18.2345H12.52V11.5345H14.77L15.08 8.88448H12.52V7.18448C12.52 6.78448 12.62 6.46448 12.8 6.25448C12.98 6.05448 13.3 5.93448 13.8 5.93448H15.17V3.58448C14.57 3.52448 13.9 3.48448 13.16 3.48448C12.15 3.48448 11.33 3.78448 10.71 4.38448C10.09 4.98448 9.78 5.82448 9.78 6.91448V8.88448H7.54V11.5345H9.78V18.2345H1.48C1.2 18.2345 0.979997 18.1345 0.779997 17.9545C0.687541 17.8634 0.614932 17.7543 0.566744 17.6338C0.518555 17.5133 0.495829 17.3842 0.499997 17.2545V1.82448C0.499997 1.55448 0.599997 1.32448 0.779997 1.13448C0.871033 1.04203 0.980224 0.969418 1.1007 0.921229C1.22117 0.87304 1.35031 0.850315 1.48 0.854482H16.92V0.844482Z" fill="black"/>
</svg>
