<svg width="19" height="19" viewBox="0 0 19 19" fill="none" xmlns="http://www.w3.org/2000/svg">
<path d="M9.27 1.81433C11.61 1.81433 11.89 1.82433 12.81 1.86433C13.67 1.90433 14.13 2.04433 14.44 2.16433C14.85 2.33433 15.14 2.51433 15.45 2.82433C15.75 3.12433 15.95 3.42433 16.1 3.82433C16.22 4.14433 16.37 4.60433 16.4 5.46433C16.45 6.38433 16.46 6.66433 16.46 9.00433C16.46 11.3443 16.45 11.6243 16.41 12.5443C16.4055 13.101 16.304 13.6526 16.11 14.1743C15.94 14.5843 15.76 14.8743 15.45 15.1843C15.15 15.4843 14.85 15.6843 14.44 15.8443C14.13 15.9643 13.67 16.1043 12.81 16.1443C11.89 16.1843 11.61 16.1943 9.27 16.1943C6.93 16.1943 6.65 16.1943 5.72 16.1443C5.16673 16.1386 4.61862 16.0371 4.1 15.8443C3.68 15.6843 3.4 15.4943 3.09 15.1843C2.78 14.8843 2.59 14.5843 2.43 14.1843C2.23647 13.659 2.13499 13.1042 2.13 12.5443C2.09 11.6243 2.08 11.3443 2.08 9.00433C2.08 6.66433 2.08 6.38433 2.13 5.46433C2.17 4.60433 2.31 4.14433 2.43 3.83433C2.59 3.42433 2.78 3.13433 3.09 2.82433C3.39 2.52433 3.69 2.32433 4.09 2.17433C4.41 2.05433 4.87 1.90433 5.72 1.87433C6.65 1.82433 6.92 1.81433 9.27 1.81433ZM9.27 0.234331C6.89 0.234331 6.59 0.244331 5.65 0.284331C4.72 0.324331 4.08 0.484331 3.52 0.684331C2.95 0.914331 2.46 1.22433 1.97 1.70433C1.5 2.19433 1.2 2.68433 0.96 3.25433C0.74 3.81433 0.59 4.45433 0.56 5.38433C0.5 6.33433 0.5 6.63433 0.5 9.00433C0.5 11.3743 0.51 11.6843 0.55 12.6143C0.59 13.5543 0.75 14.1843 0.95 14.7443C1.18 15.3243 1.49 15.8143 1.97 16.3043C2.46 16.7843 2.95 17.0843 3.52 17.3143C4.08 17.5343 4.72 17.6843 5.65 17.7143C6.59 17.7643 6.89 17.7743 9.27 17.7743C11.66 17.7743 11.95 17.7643 12.89 17.7243C13.82 17.6843 14.46 17.5243 15.02 17.3143C15.6043 17.095 16.1333 16.7502 16.57 16.3043C17.06 15.8143 17.36 15.3243 17.58 14.7443C17.8 14.1943 17.95 13.5543 17.99 12.6143C18.03 11.6843 18.04 11.3843 18.04 9.00433C18.04 6.61433 18.04 6.32433 17.99 5.38433C17.9774 4.65689 17.8421 3.93679 17.59 3.25433C17.3677 2.66914 17.0195 2.13999 16.57 1.70433C16.1317 1.26042 15.6031 0.915965 15.02 0.694331C14.3383 0.43803 13.6181 0.299391 12.89 0.284331C11.684 0.236006 10.4769 0.219333 9.27 0.234331Z" fill="black"/>
<path d="M9.3 4.23428C8.10653 4.23428 6.96193 4.70838 6.11802 5.5523C5.27411 6.39621 4.8 7.5408 4.8 8.73428C4.8 9.92775 5.27411 11.0723 6.11802 11.9163C6.96193 12.7602 8.10653 13.2343 9.3 13.2343C10.4935 13.2343 11.6381 12.7602 12.482 11.9163C13.3259 11.0723 13.8 9.92775 13.8 8.73428C13.8 7.5408 13.3259 6.39621 12.482 5.5523C11.6381 4.70838 10.4935 4.23428 9.3 4.23428ZM9.3 11.6643C8.91588 11.6643 8.53553 11.5886 8.18065 11.4416C7.82577 11.2946 7.50332 11.0792 7.23171 10.8076C6.9601 10.536 6.74465 10.2135 6.59765 9.85863C6.45066 9.50375 6.375 9.12339 6.375 8.73928C6.375 8.35516 6.45066 7.97481 6.59765 7.61993C6.74465 7.26505 6.9601 6.9426 7.23171 6.67099C7.50332 6.39938 7.82577 6.18392 8.18065 6.03693C8.53553 5.88993 8.91588 5.81428 9.3 5.81428C10.0758 5.81428 10.8197 6.12245 11.3683 6.67099C11.9168 7.21953 12.225 7.96352 12.225 8.73928C12.225 9.51504 11.9168 10.259 11.3683 10.8076C10.8197 11.3561 10.0758 11.6643 9.3 11.6643ZM13.93 5.23428C14.2085 5.23428 14.4755 5.12365 14.6725 4.92674C14.8694 4.72983 14.98 4.46275 14.98 4.18428C14.98 3.9058 14.8694 3.63873 14.6725 3.44182C14.4755 3.2449 14.2085 3.13428 13.93 3.13428C13.6515 3.13428 13.3845 3.2449 13.1875 3.44182C12.9906 3.63873 12.88 3.9058 12.88 4.18428C12.88 4.46275 12.9906 4.72983 13.1875 4.92674C13.3845 5.12365 13.6515 5.23428 13.93 5.23428Z" fill="black"/>
</svg>
