<svg width="19" height="19" viewBox="0 0 19 19" fill="none" xmlns="http://www.w3.org/2000/svg">
<path d="M9.48 0.814346C11.6922 0.824256 13.8115 1.70434 15.38 3.26435C16.67 4.56994 17.4981 6.2613 17.7382 8.08094C17.9783 9.90058 17.6172 11.7488 16.71 13.3443C15.9808 14.6155 14.9273 15.6704 13.6571 16.4013C12.3869 17.1321 10.9455 17.5128 9.48 17.5043C8.67887 17.5099 7.88097 17.4022 7.11 17.1843C7.53 16.5043 7.81 15.8943 7.96 15.3843L8.55 13.0943C8.69 13.3743 8.96 13.6143 9.35 13.8243C9.75 14.0243 10.15 14.1343 10.59 14.1343C11.46 14.1343 12.24 13.8843 12.93 13.3843C13.6393 12.8587 14.1923 12.1501 14.53 11.3343C14.9164 10.4066 15.107 9.40915 15.09 8.40435C15.09 7.10435 14.59 5.99435 13.6 5.04435C13.0926 4.56656 12.4955 4.19416 11.8432 3.9487C11.191 3.70324 10.4965 3.5896 9.8 3.61435C8.87 3.61435 8 3.77435 7.22 4.09435C6.25219 4.46214 5.41531 5.1089 4.81538 5.95272C4.21546 6.79653 3.87947 7.79942 3.85 8.83435C3.85 9.58435 3.99 10.2443 4.28 10.8143C4.56 11.3743 4.98 11.7743 5.55 12.0143C5.65 12.0543 5.74 12.0543 5.81 12.0143C5.88 11.9843 5.93 11.9143 5.96 11.8143L6.14 11.1343C6.19 10.9843 6.16 10.8343 6.03 10.6843C5.64003 10.233 5.43626 9.65033 5.46 9.05435C5.45125 8.51378 5.55327 7.97716 5.75979 7.47752C5.96631 6.97789 6.27295 6.52584 6.66082 6.14922C7.04868 5.77259 7.50956 5.47938 8.01505 5.28764C8.52053 5.0959 9.05993 5.0097 9.6 5.03435C10.69 5.03435 11.54 5.33435 12.14 5.92435C12.75 6.52435 13.06 7.29435 13.06 8.24435C13.06 9.04435 12.95 9.78435 12.73 10.4543C12.5533 11.0606 12.2344 11.616 11.8 12.0743C11.4 12.4743 10.93 12.6743 10.4 12.6743C9.97 12.6743 9.62 12.5243 9.34 12.2043C9.07 11.8843 8.98 11.5043 9.08 11.0743C9.23266 10.5398 9.38934 10.0065 9.55 9.47435L9.73 8.74435C9.79 8.48435 9.82 8.27435 9.82 8.09435C9.82 7.73435 9.72 7.43435 9.54 7.20435C9.34 6.97435 9.07 6.85435 8.71 6.85435C8.26 6.85435 7.88 7.05435 7.58 7.47435C7.28 7.88435 7.12 8.40435 7.12 9.03435C7.125 9.42429 7.18562 9.81152 7.3 10.1843L7.36 10.3343C6.76 12.9143 6.41 14.4343 6.28 14.8743C6.16 15.4243 6.12 16.0743 6.15 16.8143C4.66706 16.1579 3.40583 15.0863 2.51859 13.7288C1.63134 12.3713 1.15602 10.7861 1.15 9.16435C1.15 6.86435 1.96 4.88435 3.59 3.26435C4.35181 2.47391 5.26743 1.84786 6.28041 1.42478C7.2934 1.0017 8.3823 0.790552 9.48 0.804346V0.814346Z" fill="black"/>
</svg>
