<svg width="19" height="19" viewBox="0 0 19 19" fill="none" xmlns="http://www.w3.org/2000/svg">
<path d="M18.14 4.91433C18.5 6.30033 18.5 9.23433 18.5 9.23433C18.5 9.23433 18.5 12.1683 18.14 13.5543C18.0398 13.9447 17.8366 14.301 17.5516 14.586C17.2667 14.8709 16.9104 15.0741 16.52 15.1743C15.134 15.5343 9.5 15.5343 9.5 15.5343C9.5 15.5343 3.866 15.5343 2.48 15.1743C2.08964 15.0741 1.73335 14.8709 1.44837 14.586C1.16339 14.301 0.960192 13.9447 0.86 13.5543C0.5 12.1683 0.5 9.23433 0.5 9.23433C0.5 9.23433 0.5 6.30033 0.86 4.91433C1.076 4.12233 1.688 3.51033 2.48 3.29433C3.866 2.93433 9.5 2.93433 9.5 2.93433C9.5 2.93433 15.134 2.93433 16.52 3.29433C17.312 3.51033 17.924 4.12233 18.14 4.91433ZM7.7 11.9343L12.38 9.23433L7.7 6.53433V11.9343Z" fill="black"/>
</svg>
