<svg width="38" height="25" viewBox="0 0 38 25" fill="none" xmlns="http://www.w3.org/2000/svg">
<path opacity="0.07" d="M35 0.125H3C1.3 0.125 0 1.425 0 3.125V21.125C0 22.825 1.4 24.125 3 24.125H35C36.7 24.125 38 22.825 38 21.125V3.125C38 1.425 36.6 0.125 35 0.125Z" fill="black"/>
<path d="M35 1.125C36.1 1.125 37 2.025 37 3.125V21.125C37 22.225 36.1 23.125 35 23.125H3C1.9 23.125 1 22.225 1 21.125V3.125C1 2.025 1.9 1.125 3 1.125H35Z" fill="#006FCF"/>
<path d="M8.971 10.393L9.745 12.269H8.203L8.971 10.393ZM25.046 10.471H22.069V11.298H24.998V12.537H22.075V13.459H25.052V14.198L27.129 11.953L25.052 9.613L25.046 10.471ZM10.983 8.131H14.978L15.865 10.066L16.687 8.125H27.057L28.135 9.315L29.25 8.125H34.013L30.494 11.977L33.977 15.805H29.143L28.065 14.615L26.94 15.805H10.03L9.536 14.615H8.406L7.911 15.805H4L7.286 8.125H10.716L10.983 8.131ZM19.646 9.209H17.407L15.907 12.745L14.282 9.209H12.06V14.019L10 9.209H8.007L5.625 14.721H7.18L7.674 13.531H10.27L10.764 14.721H13.484V10.786L15.235 14.727H16.425L18.165 10.798V14.728H19.623L19.647 9.208L19.646 9.209ZM28.986 11.977L31.517 9.209H29.695L28.094 10.935L26.546 9.209H20.652V14.727H26.462L28.076 12.989L29.624 14.727H31.499L28.986 11.977Z" fill="white"/>
</svg>
