<svg width="38" height="25" viewBox="0 0 38 25" fill="none" xmlns="http://www.w3.org/2000/svg">
<path d="M34.3872 0.125H3.61284C3.48465 0.125 3.35623 0.125 3.22826 0.125679C3.12023 0.126585 3.01242 0.127718 2.90438 0.130662C2.66906 0.137004 2.4317 0.151046 2.19932 0.19272C1.96627 0.232648 1.74048 0.307074 1.52936 0.413548C1.10496 0.629411 0.759996 0.974374 0.544133 1.39878C0.437469 1.60997 0.363034 1.83595 0.323305 2.06919C0.281178 2.30179 0.267362 2.53893 0.26102 2.77403C0.25826 2.88197 0.256599 2.98993 0.256038 3.09791C0.255585 3.22565 0.255585 3.35384 0.255585 3.48226V20.7675C0.255585 20.8959 0.255585 21.0239 0.256038 21.1523C0.256717 21.2601 0.258076 21.3682 0.26102 21.4762C0.267362 21.7108 0.281405 21.9482 0.323305 22.1806C0.362953 22.4138 0.437311 22.6398 0.543906 22.851C0.651078 23.0619 0.790968 23.2546 0.958383 23.4217C1.12551 23.5892 1.31816 23.7291 1.52914 23.8362C1.74362 23.9456 1.96332 24.0152 2.19955 24.0575C2.4317 24.099 2.66906 24.113 2.90438 24.1193C3.01242 24.1218 3.12023 24.1232 3.22826 24.1239C3.35623 24.1248 3.48465 24.1248 3.61284 24.1248H34.3872C34.5151 24.1248 34.6435 24.1248 34.7715 24.1239C34.8793 24.1234 34.9871 24.1218 35.0956 24.1193C35.3305 24.113 35.5678 24.099 35.8007 24.0575C36.0338 24.0175 36.2596 23.943 36.4706 23.8362C36.8948 23.6201 37.2397 23.2752 37.4559 22.851C37.5653 22.6365 37.6346 22.4168 37.6765 22.1806C37.7186 21.9482 37.7322 21.7108 37.7385 21.4762C37.7415 21.3682 37.7431 21.2601 37.7435 21.1523C37.7444 21.0239 37.7444 20.8959 37.7444 20.7675V3.48249C37.7444 3.35407 37.7444 3.22587 37.7435 3.09768C37.7431 2.98978 37.7414 2.88189 37.7385 2.77403C37.7322 2.53893 37.7186 2.30179 37.6765 2.06919C37.637 1.83591 37.5627 1.6099 37.4559 1.39878C37.2399 0.974448 36.895 0.629513 36.4706 0.413548C36.2595 0.307184 36.0337 0.232836 35.8007 0.192947C35.5678 0.151046 35.3305 0.13723 35.0956 0.130889C34.9876 0.128145 34.8796 0.126484 34.7715 0.125906C34.6435 0.125 34.5151 0.125 34.3872 0.125Z" fill="black"/>
<path d="M34.3872 0.925049L34.7658 0.925728C34.8682 0.926408 34.9708 0.92754 35.0739 0.930258C35.2535 0.935241 35.4632 0.94498 35.6589 0.980086C35.8288 1.01066 35.9714 1.05709 36.1082 1.12685C36.382 1.26604 36.6044 1.48869 36.7433 1.76261C36.8126 1.8985 36.8588 2.04029 36.8894 2.21174C36.9243 2.40516 36.934 2.61557 36.9388 2.79608C36.9417 2.898 36.9431 2.99992 36.9433 3.10411C36.9444 3.23026 36.9445 3.35619 36.9445 3.48257V20.7678C36.9445 20.8942 36.9445 21.0201 36.9435 21.1488C36.9431 21.2507 36.9417 21.3526 36.939 21.4545C36.934 21.6348 36.9243 21.8452 36.889 22.0409C36.8633 22.1966 36.814 22.3474 36.7429 22.4882C36.6037 22.7623 36.3809 22.9849 36.1069 23.124C35.971 23.1933 35.8288 23.2397 35.6605 23.2701C35.4609 23.3056 35.2422 23.3154 35.0775 23.3199C34.974 23.3222 34.8709 23.3238 34.7652 23.3242C34.6395 23.3251 34.5131 23.3251 34.3872 23.3251H3.60786C3.48329 23.3251 3.35872 23.3251 3.23189 23.3242C3.12996 23.3238 3.02803 23.3224 2.92613 23.3201C2.75762 23.3156 2.53883 23.3056 2.34088 23.2703C2.18437 23.2442 2.03271 23.1946 1.89107 23.1231C1.7552 23.0541 1.63119 22.9639 1.5237 22.8558C1.41587 22.7482 1.32581 22.6241 1.2569 22.4882C1.18572 22.3466 1.13639 22.195 1.11058 22.0387C1.07525 21.8432 1.06528 21.6337 1.06076 21.4548C1.0582 21.3525 1.05669 21.2502 1.05623 21.1479L1.05555 20.8473V3.4033L1.056 3.1032C1.05647 3.00074 1.05798 2.89829 1.06053 2.79586C1.06551 2.61648 1.07525 2.40697 1.11081 2.20993C1.13667 2.05384 1.186 1.90257 1.25712 1.76125C1.32597 1.62581 1.41566 1.50214 1.52438 1.39366C1.63213 1.28574 1.75627 1.19554 1.8922 1.1264C2.0335 1.05541 2.18467 1.00609 2.34065 0.980086C2.53656 0.94498 2.74652 0.935241 2.92635 0.930258C3.02873 0.92754 3.13133 0.926408 3.23302 0.925728L3.61284 0.925049H34.3872Z" fill="white"/>
<path d="M10.1097 8.22647C10.4277 7.82898 10.6433 7.29514 10.5865 6.74976C10.1213 6.77286 9.55368 7.05665 9.22481 7.45459C8.9297 7.79523 8.66855 8.35127 8.7365 8.87378C9.25878 8.91908 9.78062 8.61286 10.1097 8.22647Z" fill="black"/>
<path d="M10.5806 8.97594C9.82184 8.93064 9.17725 9.40627 8.81509 9.40627C8.45271 9.40627 7.89803 8.99859 7.29806 9.00969C6.51735 9.02101 5.79304 9.46267 5.39668 10.1648C4.58177 11.569 5.18151 13.6527 5.97423 14.7965C6.35903 15.3627 6.82289 15.9856 7.43396 15.9632C8.0115 15.9405 8.23777 15.5894 8.93943 15.5894C9.64087 15.5894 9.84471 15.9632 10.456 15.9518C11.0897 15.9405 11.4861 15.3856 11.8709 14.8194C12.3125 14.1739 12.4931 13.551 12.5044 13.5171C12.4931 13.5057 11.2822 13.0412 11.2709 11.6483C11.2596 10.4819 12.2217 9.92697 12.267 9.89277C11.7237 9.08919 10.8748 8.99859 10.5804 8.97594" fill="black"/>
<path d="M18.1422 7.39746C19.7906 7.39746 20.9386 8.53376 20.9386 10.188C20.9386 11.8482 19.767 12.9904 18.1009 12.9904H16.2759V15.8931H14.9573V7.39746H18.1422ZM16.2759 11.8835H17.7888C18.9371 11.8835 19.5903 11.2655 19.5903 10.1939C19.5903 9.12263 18.9369 8.51021 17.7947 8.51021H16.2759V11.8835Z" fill="black"/>
<path d="M21.2657 14.1325C21.2657 13.0433 22.0958 12.4194 23.6264 12.3252L25.2689 12.225V11.7539C25.2689 11.0654 24.8157 10.6885 24.0092 10.6885C23.3437 10.6885 22.8609 11.0299 22.7612 11.5537H21.5717C21.6072 10.453 22.6432 9.65234 24.0445 9.65234C25.5516 9.65234 26.5348 10.4412 26.5348 11.6658V15.8928H25.3162V14.8743H25.2868C24.9394 15.5395 24.1738 15.9574 23.3437 15.9574C22.1193 15.9574 21.2657 15.2276 21.2657 14.1325ZM25.2689 13.5851V13.1081L23.8031 13.2023C22.9786 13.2553 22.5492 13.5613 22.5492 14.097C22.5492 14.6152 22.9965 14.9508 23.6971 14.9508C24.5917 14.9508 25.2689 14.3796 25.2689 13.5851Z" fill="black"/>
<path d="M27.6552 18.1653V17.147C27.7376 17.1586 27.9376 17.1703 28.0436 17.1703C28.6264 17.1703 28.9562 16.9235 29.1564 16.2872L29.2741 15.9106L27.0428 9.729H28.4203L29.9747 14.7448H30.0041L31.5583 9.729H32.9007L30.5869 16.2225C30.0569 17.7121 29.4506 18.2009 28.1673 18.2009C28.0672 18.2009 27.7433 18.1891 27.6552 18.1653Z" fill="black"/>
</svg>
