<svg width="38" height="25" viewBox="0 0 38 25" fill="none" xmlns="http://www.w3.org/2000/svg">
<g clip-path="url(#clip0_1_186)">
<path opacity="0.07" d="M35 0.125H3C1.3 0.125 0 1.425 0 3.125V21.125C0 22.825 1.4 24.125 3 24.125H35C36.7 24.125 38 22.825 38 21.125V3.125C38 1.425 36.6 0.125 35 0.125Z" fill="black"/>
<path d="M35 1.125C36.1 1.125 37 2.025 37 3.125V21.125C37 22.225 36.1 23.125 35 23.125H3C1.9 23.125 1 22.225 1 21.125V3.125C1 2.025 1.9 1.125 3 1.125H35Z" fill="white"/>
<path d="M15 19.125C18.866 19.125 22 15.991 22 12.125C22 8.25901 18.866 5.125 15 5.125C11.134 5.125 8 8.25901 8 12.125C8 15.991 11.134 19.125 15 19.125Z" fill="#EB001B"/>
<path d="M23 19.125C26.866 19.125 30 15.991 30 12.125C30 8.25901 26.866 5.125 23 5.125C19.134 5.125 16 8.25901 16 12.125C16 15.991 19.134 19.125 23 19.125Z" fill="#F79E1B"/>
<path d="M22 12.125C22 9.72505 20.8 7.62505 19 6.42505C17.2 7.72505 16 9.82505 16 12.125C16 14.425 17.2 16.625 19 17.825C20.8 16.625 22 14.525 22 12.125Z" fill="#FF5F00"/>
</g>
<defs>
<clipPath id="clip0_1_186">
<rect width="38" height="24" fill="white" transform="translate(0 0.125)"/>
</clipPath>
</defs>
</svg>
