<svg width="38" height="25" viewBox="0 0 38 25" fill="none" xmlns="http://www.w3.org/2000/svg">
<g clip-path="url(#clip0_1_193)">
<path opacity="0.07" d="M35 0.125H3C1.3 0.125 0 1.425 0 3.125V21.125C0 22.825 1.4 24.125 3 24.125H35C36.7 24.125 38 22.825 38 21.125V3.125C38 1.425 36.6 0.125 35 0.125Z" fill="black"/>
<path d="M35 1.125C36.1 1.125 37 2.025 37 3.125V21.125C37 22.225 36.1 23.125 35 23.125H3C1.9 23.125 1 22.225 1 21.125V3.125C1 2.025 1.9 1.125 3 1.125H35Z" fill="white"/>
<path d="M28.3 10.225H28C27.6 11.225 27.3 11.725 27 13.225H28.9C28.6 11.725 28.6 11.025 28.3 10.225ZM31.2 16.125H29.5C29.4 16.125 29.4 16.125 29.3 16.025L29.1 15.125L29 14.925H26.6C26.5 14.925 26.4 14.925 26.4 15.125L26.1 16.025C26.1 16.125 26 16.125 26 16.125H23.9L24.1 15.625L27 8.825C27 8.325 27.3 8.125 27.8 8.125H29.3C29.4 8.125 29.5 8.125 29.5 8.325L30.9 14.825C31 15.225 31.1 15.525 31.1 15.925C31.2 16.025 31.2 16.025 31.2 16.125ZM17.8 15.825L18.2 14.025C18.3 14.025 18.4 14.125 18.4 14.125C19.1 14.425 19.8 14.625 20.5 14.525C20.7 14.525 21 14.425 21.2 14.325C21.7 14.125 21.7 13.625 21.3 13.225C21.1 13.025 20.8 12.925 20.5 12.725C20.1 12.525 19.7 12.325 19.4 12.025C18.2 11.025 18.6 9.625 19.3 8.925C19.9 8.525 20.2 8.125 21 8.125C22.2 8.125 23.5 8.125 24.1 8.325H24.2C24.1 8.925 24 9.425 23.8 10.025C23.3 9.825 22.8 9.625 22.3 9.625C22 9.625 21.7 9.625 21.4 9.725C21.2 9.725 21.1 9.825 21 9.925C20.8 10.125 20.8 10.425 21 10.625L21.5 11.025C21.9 11.225 22.3 11.425 22.6 11.625C23.1 11.925 23.6 12.425 23.7 13.025C23.9 13.925 23.6 14.725 22.8 15.325C22.3 15.725 22.1 15.925 21.4 15.925C20 15.925 18.9 16.025 18 15.725C17.9 15.925 17.9 15.925 17.8 15.825ZM14.3 16.125C14.4 15.425 14.4 15.425 14.5 15.125C15 12.925 15.5 10.625 15.9 8.425C16 8.225 16 8.125 16.2 8.125H18C17.8 9.325 17.6 10.225 17.3 11.325C17 12.825 16.7 14.325 16.3 15.825C16.3 16.025 16.2 16.025 16 16.025M5 8.325C5 8.225 5.2 8.125 5.3 8.125H8.7C9.2 8.125 9.6 8.425 9.7 8.925L10.6 13.325C10.6 13.425 10.6 13.425 10.7 13.525C10.7 13.425 10.8 13.425 10.8 13.425L12.9 8.325C12.8 8.225 12.9 8.125 13 8.125H15.1C15.1 8.225 15.1 8.225 15 8.325L11.9 15.625C11.8 15.825 11.8 15.925 11.7 16.025C11.6 16.125 11.4 16.025 11.2 16.025H9.7C9.6 16.025 9.5 16.025 9.5 15.825L7.9 9.625C7.7 9.425 7.4 9.125 7 9.025C6.4 8.725 5.3 8.525 5.1 8.525L5 8.325Z" fill="#142688"/>
</g>
<defs>
<clipPath id="clip0_1_193">
<rect width="38" height="24" fill="white" transform="translate(0 0.125)"/>
</clipPath>
</defs>
</svg>
