<?xml version="1.0" standalone="no"?>
<!DOCTYPE svg PUBLIC "-//W3C//DTD SVG 20010904//EN"
 "http://www.w3.org/TR/2001/REC-SVG-20010904/DTD/svg10.dtd">
<svg   version="1.0" xmlns="http://www.w3.org/2000/svg"
 width="50.000000pt" height="50.000000pt" viewBox="0 0 50.000000 50.000000"
 preserveAspectRatio="xMidYMid meet">
<metadata>
Created by potrace 1.16, written by Peter Selinger 2001-2019
</metadata>
<g transform="translate(0.000000,50.000000) scale(0.010000,-0.010000)"
fill="#000000" stroke="none">
<path  id="my-path" fill='red' d="M1263 4720 c-315 -30 -599 -166 -828 -395 -305 -305 -456 -733 -425
-1210 15 -236 61 -405 173 -634 171 -350 452 -673 1037 -1192 342 -304 1106
-954 1150 -979 38 -21 57 -25 130 -25 73 0 92 4 130 26 45 25 795 663 1150
978 468 414 716 679 913 974 117 174 233 443 271 627 31 148 41 328 28 476
-35 387 -180 712 -427 959 -237 238 -513 366 -852 395 -431 38 -831 -137
-1130 -493 -42 -51 -79 -92 -83 -92 -4 0 -41 42 -84 93 -164 196 -378 349
-594 426 -161 57 -378 83 -559 66z m332 -309 c102 -21 214 -63 295 -111 138
-81 293 -234 410 -404 84 -123 120 -150 200 -150 80 0 116 27 200 150 117 170
272 323 410 404 281 166 681 173 985 17 143 -73 297 -212 393 -356 149 -223
215 -446 215 -731 0 -271 -57 -474 -210 -735 -140 -239 -409 -539 -798 -889
-251 -227 -1183 -1026 -1195 -1026 -12 0 -846 715 -1150 986 -230 205 -501
475 -617 614 -234 281 -372 548 -419 810 -23 125 -23 352 0 480 57 319 229
602 471 772 123 87 262 145 413 172 113 21 289 19 397 -3z"/>
</g>
</svg>
